# xmcd
#
# Track frame offsets:
#	150
#	22942
#	53839
#	95697
#	126065
#	161974
#	182178
#	199822
#	227164
#	243328
#
# Disc length: 3687 seconds
#
# Revision: 2
# Processed by: cddbd v1.5.2PL0 Copyright (c) Steve Scherf et al.
# Submitted via: EasyCDDAExtractor 12.0.1.1
#
DISCID=850e650a
DTITLE=Jon Jenkins - Beyond City Light
DYEAR=1900
DGENRE=
TTITLE0=The Calling
TTITLE1=Zzyxx Road
TTITLE2=Through City Light
TTITLE3=Secrets of the Virgin
TTITLE4=Legacy
TTITLE5=Deep Sleep and Dying Embers
TTITLE6=The Source
TTITLE7=Sky of Surrender
TTITLE8=Through Different Eyes
TTITLE9=Forever
EXTD=
EXTT0=
EXTT1=
EXTT2=
EXTT3=
EXTT4=
EXTT5=
EXTT6=
EXTT7=
EXTT8=
EXTT9=
PLAYORDER=
